<mxfile host="app.diagrams.net" agent="Mozilla/5.0 (Windows NT 10.0; Win64; x64) AppleWebKit/537.36 (KHTML, like Gecko) Chrome/134.0.0.0 Safari/537.36" version="26.1.1">
  <diagram id="0d7cefc2-ccd6-e077-73ed-a8e48b0cddf6" name="Page-1">
    <mxGraphModel dx="1687" dy="889" grid="1" gridSize="10" guides="1" tooltips="1" connect="1" arrows="1" fold="1" page="1" pageScale="1" pageWidth="1169" pageHeight="827" background="none" math="0" shadow="0">
      <root>
        <mxCell id="0" />
        <mxCell id="1" parent="0" />
        <mxCell id="2" value="" style="swimlane;shadow=0;strokeColor=#4277BB;fillColor=#ffffff;fontColor=#4277BB;align=right;startSize=0;collapsible=0;strokeWidth=3;labelBackgroundColor=none;" parent="1" vertex="1">
          <mxGeometry x="160" y="80" width="840" height="710" as="geometry" />
        </mxCell>
        <mxCell id="GV3HyDdgsDmQnaQocu7T-106" value="" style="swimlane;shadow=0;strokeColor=#4277BB;fillColor=#ffffff;fontColor=#4277BB;align=right;startSize=0;collapsible=0;strokeWidth=3;" vertex="1" parent="2">
          <mxGeometry x="296" y="353.5" width="248" height="146.5" as="geometry" />
        </mxCell>
        <mxCell id="87" value="BANCO DE DADOS&lt;div&gt;(rodando em servidor&lt;/div&gt;&lt;div&gt;apartado&lt;span style=&quot;background-color: light-dark(rgb(255, 255, 255), rgb(18, 18, 18)); color: light-dark(rgb(66, 119, 187), rgb(101, 146, 205));&quot;&gt;)&lt;/span&gt;&lt;/div&gt;" style="aspect=fixed;perimeter=ellipsePerimeter;html=1;align=center;shadow=0;dashed=0;image;image=img/lib/ibm/data/data_services.svg;rounded=1;labelBackgroundColor=#ffffff;strokeColor=#666666;strokeWidth=3;fillColor=#C2952D;gradientColor=none;fontSize=14;fontColor=#4277BB;" parent="GV3HyDdgsDmQnaQocu7T-106" vertex="1">
          <mxGeometry x="94" y="13" width="60" height="60" as="geometry" />
        </mxCell>
        <mxCell id="GV3HyDdgsDmQnaQocu7T-113" value="" style="swimlane;shadow=0;strokeColor=#4277BB;fillColor=#ffffff;fontColor=#4277BB;align=right;startSize=0;collapsible=0;strokeWidth=3;" vertex="1" parent="2">
          <mxGeometry x="340" y="50" width="168.32999999999998" height="216" as="geometry" />
        </mxCell>
        <mxCell id="92" value="SRV-01&#xa;(servidor a &#xa;ser monitorado)" style="group;fontSize=12;fontColor=#4277BB;labelPosition=center;verticalLabelPosition=bottom;align=center;verticalAlign=top;labelBackgroundColor=#ffffff;" parent="GV3HyDdgsDmQnaQocu7T-113" vertex="1" connectable="0">
          <mxGeometry x="50" y="20" width="60" height="60" as="geometry" />
        </mxCell>
        <mxCell id="91" value="" style="aspect=fixed;perimeter=ellipsePerimeter;html=1;align=center;shadow=0;dashed=0;image;image=img/lib/ibm/miscellaneous/scalable.svg;rounded=1;labelBackgroundColor=none;strokeColor=#666666;strokeWidth=3;fillColor=#C2952D;gradientColor=none;fontSize=14;fontColor=#4277BB;" parent="92" vertex="1">
          <mxGeometry width="15" height="15" as="geometry" />
        </mxCell>
        <mxCell id="88" value="" style="aspect=fixed;perimeter=ellipsePerimeter;html=1;align=center;shadow=0;dashed=0;image;image=img/lib/ibm/data/file_repository.svg;rounded=1;labelBackgroundColor=none;strokeColor=#666666;strokeWidth=3;fillColor=#C2952D;gradientColor=none;fontSize=14;fontColor=#4277BB;" parent="92" vertex="1">
          <mxGeometry width="60" height="60" as="geometry" />
        </mxCell>
        <mxCell id="GV3HyDdgsDmQnaQocu7T-138" value="" style="strokeColor=#dddddd;shadow=1;strokeWidth=1;rounded=1;absoluteArcSize=1;arcSize=2;" vertex="1" parent="GV3HyDdgsDmQnaQocu7T-113">
          <mxGeometry x="9" y="160" width="90" height="44" as="geometry" />
        </mxCell>
        <mxCell id="GV3HyDdgsDmQnaQocu7T-139" value="&lt;font style=&quot;font-size: 11px;&quot;&gt;Task&lt;/font&gt;&lt;div&gt;&lt;font style=&quot;font-size: 11px;&quot;&gt;Schedule&lt;/font&gt;&lt;/div&gt;" style="sketch=0;dashed=0;connectable=0;html=1;fillColor=#757575;strokeColor=none;shape=mxgraph.gcp2.task_queues;part=1;labelPosition=right;verticalLabelPosition=middle;align=left;verticalAlign=middle;spacingLeft=5;fontSize=12;" vertex="1" parent="GV3HyDdgsDmQnaQocu7T-138">
          <mxGeometry y="0.5" width="32" height="32" relative="1" as="geometry">
            <mxPoint x="5" y="-16" as="offset" />
          </mxGeometry>
        </mxCell>
        <mxCell id="GV3HyDdgsDmQnaQocu7T-141" value="" style="group" vertex="1" connectable="0" parent="GV3HyDdgsDmQnaQocu7T-113">
          <mxGeometry x="98.99999999999999" y="160" width="80" height="50" as="geometry" />
        </mxCell>
        <mxCell id="GV3HyDdgsDmQnaQocu7T-131" value="" style="whiteSpace=wrap;html=1;shape=mxgraph.basic.document" vertex="1" parent="GV3HyDdgsDmQnaQocu7T-141">
          <mxGeometry x="30.670000000000016" width="18.67" height="26" as="geometry" />
        </mxCell>
        <mxCell id="GV3HyDdgsDmQnaQocu7T-140" value="&lt;font&gt;script.php&lt;/font&gt;" style="text;html=1;align=center;verticalAlign=middle;resizable=0;points=[];autosize=1;strokeColor=none;fillColor=none;" vertex="1" parent="GV3HyDdgsDmQnaQocu7T-141">
          <mxGeometry y="20" width="80" height="30" as="geometry" />
        </mxCell>
        <mxCell id="GV3HyDdgsDmQnaQocu7T-175" style="edgeStyle=orthogonalEdgeStyle;rounded=0;orthogonalLoop=1;jettySize=auto;html=1;entryX=0.5;entryY=0;entryDx=0;entryDy=0;entryPerimeter=0;" edge="1" parent="GV3HyDdgsDmQnaQocu7T-113" source="GV3HyDdgsDmQnaQocu7T-138" target="GV3HyDdgsDmQnaQocu7T-131">
          <mxGeometry relative="1" as="geometry" />
        </mxCell>
        <mxCell id="GV3HyDdgsDmQnaQocu7T-147" value="" style="swimlane;shadow=0;strokeColor=#4277BB;fillColor=#ffffff;fontColor=#4277BB;align=right;startSize=0;collapsible=0;strokeWidth=3;" vertex="1" parent="2">
          <mxGeometry x="131" y="50" width="168.32999999999998" height="216" as="geometry" />
        </mxCell>
        <mxCell id="GV3HyDdgsDmQnaQocu7T-148" value="SRV-01&#xa;(servidor a &#xa;ser monitorado)" style="group;fontSize=12;fontColor=#4277BB;labelPosition=center;verticalLabelPosition=bottom;align=center;verticalAlign=top;labelBackgroundColor=#ffffff;" vertex="1" connectable="0" parent="GV3HyDdgsDmQnaQocu7T-147">
          <mxGeometry x="50" y="20" width="60" height="60" as="geometry" />
        </mxCell>
        <mxCell id="GV3HyDdgsDmQnaQocu7T-149" value="" style="aspect=fixed;perimeter=ellipsePerimeter;html=1;align=center;shadow=0;dashed=0;image;image=img/lib/ibm/miscellaneous/scalable.svg;rounded=1;labelBackgroundColor=none;strokeColor=#666666;strokeWidth=3;fillColor=#C2952D;gradientColor=none;fontSize=14;fontColor=#4277BB;" vertex="1" parent="GV3HyDdgsDmQnaQocu7T-148">
          <mxGeometry width="15" height="15" as="geometry" />
        </mxCell>
        <mxCell id="GV3HyDdgsDmQnaQocu7T-150" value="" style="aspect=fixed;perimeter=ellipsePerimeter;html=1;align=center;shadow=0;dashed=0;image;image=img/lib/ibm/data/file_repository.svg;rounded=1;labelBackgroundColor=none;strokeColor=#666666;strokeWidth=3;fillColor=#C2952D;gradientColor=none;fontSize=14;fontColor=#4277BB;" vertex="1" parent="GV3HyDdgsDmQnaQocu7T-148">
          <mxGeometry width="60" height="60" as="geometry" />
        </mxCell>
        <mxCell id="GV3HyDdgsDmQnaQocu7T-151" value="" style="strokeColor=#dddddd;shadow=1;strokeWidth=1;rounded=1;absoluteArcSize=1;arcSize=2;" vertex="1" parent="GV3HyDdgsDmQnaQocu7T-147">
          <mxGeometry x="9" y="160" width="90" height="44" as="geometry" />
        </mxCell>
        <mxCell id="GV3HyDdgsDmQnaQocu7T-152" value="&lt;font style=&quot;font-size: 11px;&quot;&gt;Task&lt;/font&gt;&lt;div&gt;&lt;font style=&quot;font-size: 11px;&quot;&gt;Schedule&lt;/font&gt;&lt;/div&gt;" style="sketch=0;dashed=0;connectable=0;html=1;fillColor=#757575;strokeColor=none;shape=mxgraph.gcp2.task_queues;part=1;labelPosition=right;verticalLabelPosition=middle;align=left;verticalAlign=middle;spacingLeft=5;fontSize=12;" vertex="1" parent="GV3HyDdgsDmQnaQocu7T-151">
          <mxGeometry y="0.5" width="32" height="32" relative="1" as="geometry">
            <mxPoint x="5" y="-16" as="offset" />
          </mxGeometry>
        </mxCell>
        <mxCell id="GV3HyDdgsDmQnaQocu7T-153" value="" style="group" vertex="1" connectable="0" parent="GV3HyDdgsDmQnaQocu7T-147">
          <mxGeometry x="98.99999999999999" y="160" width="80" height="50" as="geometry" />
        </mxCell>
        <mxCell id="GV3HyDdgsDmQnaQocu7T-154" value="" style="whiteSpace=wrap;html=1;shape=mxgraph.basic.document" vertex="1" parent="GV3HyDdgsDmQnaQocu7T-153">
          <mxGeometry x="30.670000000000016" width="18.67" height="26" as="geometry" />
        </mxCell>
        <mxCell id="GV3HyDdgsDmQnaQocu7T-155" value="&lt;font&gt;script.php&lt;/font&gt;" style="text;html=1;align=center;verticalAlign=middle;resizable=0;points=[];autosize=1;strokeColor=none;fillColor=none;" vertex="1" parent="GV3HyDdgsDmQnaQocu7T-153">
          <mxGeometry y="20" width="80" height="30" as="geometry" />
        </mxCell>
        <mxCell id="GV3HyDdgsDmQnaQocu7T-176" style="edgeStyle=orthogonalEdgeStyle;rounded=0;orthogonalLoop=1;jettySize=auto;html=1;entryX=0.5;entryY=0;entryDx=0;entryDy=0;entryPerimeter=0;" edge="1" parent="GV3HyDdgsDmQnaQocu7T-147" source="GV3HyDdgsDmQnaQocu7T-151" target="GV3HyDdgsDmQnaQocu7T-154">
          <mxGeometry relative="1" as="geometry" />
        </mxCell>
        <mxCell id="GV3HyDdgsDmQnaQocu7T-156" value="" style="swimlane;shadow=0;strokeColor=#4277BB;fillColor=#ffffff;fontColor=#4277BB;align=right;startSize=0;collapsible=0;strokeWidth=3;" vertex="1" parent="2">
          <mxGeometry x="550" y="50" width="168.32999999999998" height="216" as="geometry" />
        </mxCell>
        <mxCell id="GV3HyDdgsDmQnaQocu7T-157" value="SRV-01&#xa;(servidor a &#xa;ser monitorado)" style="group;fontSize=12;fontColor=#4277BB;labelPosition=center;verticalLabelPosition=bottom;align=center;verticalAlign=top;labelBackgroundColor=#ffffff;" vertex="1" connectable="0" parent="GV3HyDdgsDmQnaQocu7T-156">
          <mxGeometry x="50" y="20" width="60" height="60" as="geometry" />
        </mxCell>
        <mxCell id="GV3HyDdgsDmQnaQocu7T-158" value="" style="aspect=fixed;perimeter=ellipsePerimeter;html=1;align=center;shadow=0;dashed=0;image;image=img/lib/ibm/miscellaneous/scalable.svg;rounded=1;labelBackgroundColor=none;strokeColor=#666666;strokeWidth=3;fillColor=#C2952D;gradientColor=none;fontSize=14;fontColor=#4277BB;" vertex="1" parent="GV3HyDdgsDmQnaQocu7T-157">
          <mxGeometry width="15" height="15" as="geometry" />
        </mxCell>
        <mxCell id="GV3HyDdgsDmQnaQocu7T-159" value="" style="aspect=fixed;perimeter=ellipsePerimeter;html=1;align=center;shadow=0;dashed=0;image;image=img/lib/ibm/data/file_repository.svg;rounded=1;labelBackgroundColor=none;strokeColor=#666666;strokeWidth=3;fillColor=#C2952D;gradientColor=none;fontSize=14;fontColor=#4277BB;" vertex="1" parent="GV3HyDdgsDmQnaQocu7T-157">
          <mxGeometry width="60" height="60" as="geometry" />
        </mxCell>
        <mxCell id="GV3HyDdgsDmQnaQocu7T-160" value="" style="strokeColor=#dddddd;shadow=1;strokeWidth=1;rounded=1;absoluteArcSize=1;arcSize=2;" vertex="1" parent="GV3HyDdgsDmQnaQocu7T-156">
          <mxGeometry x="9" y="160" width="90" height="44" as="geometry" />
        </mxCell>
        <mxCell id="GV3HyDdgsDmQnaQocu7T-161" value="&lt;font style=&quot;font-size: 11px;&quot;&gt;Task&lt;/font&gt;&lt;div&gt;&lt;font style=&quot;font-size: 11px;&quot;&gt;Schedule&lt;/font&gt;&lt;/div&gt;" style="sketch=0;dashed=0;connectable=0;html=1;fillColor=#757575;strokeColor=none;shape=mxgraph.gcp2.task_queues;part=1;labelPosition=right;verticalLabelPosition=middle;align=left;verticalAlign=middle;spacingLeft=5;fontSize=12;" vertex="1" parent="GV3HyDdgsDmQnaQocu7T-160">
          <mxGeometry y="0.5" width="32" height="32" relative="1" as="geometry">
            <mxPoint x="5" y="-16" as="offset" />
          </mxGeometry>
        </mxCell>
        <mxCell id="GV3HyDdgsDmQnaQocu7T-162" value="" style="group" vertex="1" connectable="0" parent="GV3HyDdgsDmQnaQocu7T-156">
          <mxGeometry x="98.99999999999999" y="160" width="80" height="50" as="geometry" />
        </mxCell>
        <mxCell id="GV3HyDdgsDmQnaQocu7T-163" value="" style="whiteSpace=wrap;html=1;shape=mxgraph.basic.document" vertex="1" parent="GV3HyDdgsDmQnaQocu7T-162">
          <mxGeometry x="30.670000000000016" width="18.67" height="26" as="geometry" />
        </mxCell>
        <mxCell id="GV3HyDdgsDmQnaQocu7T-164" value="&lt;font&gt;script.php&lt;/font&gt;" style="text;html=1;align=center;verticalAlign=middle;resizable=0;points=[];autosize=1;strokeColor=none;fillColor=none;" vertex="1" parent="GV3HyDdgsDmQnaQocu7T-162">
          <mxGeometry y="20" width="80" height="30" as="geometry" />
        </mxCell>
        <mxCell id="GV3HyDdgsDmQnaQocu7T-174" style="edgeStyle=orthogonalEdgeStyle;rounded=0;orthogonalLoop=1;jettySize=auto;html=1;entryX=0.5;entryY=0;entryDx=0;entryDy=0;entryPerimeter=0;" edge="1" parent="GV3HyDdgsDmQnaQocu7T-156" source="GV3HyDdgsDmQnaQocu7T-160" target="GV3HyDdgsDmQnaQocu7T-163">
          <mxGeometry relative="1" as="geometry" />
        </mxCell>
        <mxCell id="GV3HyDdgsDmQnaQocu7T-169" style="edgeStyle=orthogonalEdgeStyle;rounded=0;orthogonalLoop=1;jettySize=auto;html=1;" edge="1" parent="2" source="GV3HyDdgsDmQnaQocu7T-154" target="87">
          <mxGeometry relative="1" as="geometry">
            <Array as="points">
              <mxPoint x="270" y="290" />
              <mxPoint x="420" y="290" />
            </Array>
          </mxGeometry>
        </mxCell>
        <mxCell id="GV3HyDdgsDmQnaQocu7T-170" style="edgeStyle=orthogonalEdgeStyle;rounded=0;orthogonalLoop=1;jettySize=auto;html=1;" edge="1" parent="2" source="GV3HyDdgsDmQnaQocu7T-131" target="87">
          <mxGeometry relative="1" as="geometry">
            <Array as="points">
              <mxPoint x="479" y="290" />
              <mxPoint x="420" y="290" />
            </Array>
          </mxGeometry>
        </mxCell>
        <mxCell id="GV3HyDdgsDmQnaQocu7T-171" style="edgeStyle=orthogonalEdgeStyle;rounded=0;orthogonalLoop=1;jettySize=auto;html=1;" edge="1" parent="2" source="GV3HyDdgsDmQnaQocu7T-163">
          <mxGeometry relative="1" as="geometry">
            <mxPoint x="420" y="370" as="targetPoint" />
            <Array as="points">
              <mxPoint x="689" y="290" />
              <mxPoint x="420" y="290" />
              <mxPoint x="420" y="370" />
            </Array>
          </mxGeometry>
        </mxCell>
        <mxCell id="GV3HyDdgsDmQnaQocu7T-110" value="" style="swimlane;shadow=0;strokeColor=#4277BB;fillColor=#ffffff;fontColor=#4277BB;align=right;startSize=0;collapsible=0;strokeWidth=3;" vertex="1" parent="2">
          <mxGeometry x="140" y="540" width="498" height="146.5" as="geometry" />
        </mxCell>
        <mxCell id="GV3HyDdgsDmQnaQocu7T-112" value="FRONTEND&lt;div&gt;(rodando em servidor&lt;/div&gt;&lt;div&gt;apartado)&lt;/div&gt;" style="aspect=fixed;perimeter=ellipsePerimeter;html=1;align=center;shadow=0;dashed=0;image;image=img/lib/ibm/infrastructure/dashboard.svg;rounded=1;labelBackgroundColor=#ffffff;strokeColor=#666666;strokeWidth=3;fillColor=#C2952D;gradientColor=none;fontSize=14;fontColor=#4277BB;" vertex="1" parent="GV3HyDdgsDmQnaQocu7T-110">
          <mxGeometry x="390" y="20" width="60" height="60" as="geometry" />
        </mxCell>
        <mxCell id="GV3HyDdgsDmQnaQocu7T-182" value="BACKEND&lt;div&gt;(rodando em servidor&lt;/div&gt;&lt;div&gt;apartado)&lt;/div&gt;" style="aspect=fixed;perimeter=ellipsePerimeter;html=1;align=center;shadow=0;dashed=0;image;image=img/lib/ibm/infrastructure/dashboard.svg;rounded=1;labelBackgroundColor=#ffffff;strokeColor=#666666;strokeWidth=3;fillColor=#C2952D;gradientColor=none;fontSize=14;fontColor=#4277BB;" vertex="1" parent="GV3HyDdgsDmQnaQocu7T-110">
          <mxGeometry x="74.17000000000002" y="20" width="60" height="60" as="geometry" />
        </mxCell>
        <mxCell id="GV3HyDdgsDmQnaQocu7T-177" style="edgeStyle=orthogonalEdgeStyle;rounded=0;orthogonalLoop=1;jettySize=auto;html=1;exitX=1;exitY=0.5;exitDx=0;exitDy=0;" edge="1" parent="GV3HyDdgsDmQnaQocu7T-110" source="GV3HyDdgsDmQnaQocu7T-182" target="GV3HyDdgsDmQnaQocu7T-112">
          <mxGeometry relative="1" as="geometry">
            <Array as="points">
              <mxPoint x="270" y="50" />
              <mxPoint x="270" y="50" />
            </Array>
          </mxGeometry>
        </mxCell>
        <mxCell id="GV3HyDdgsDmQnaQocu7T-185" value="Apresenta informações" style="edgeLabel;html=1;align=center;verticalAlign=middle;resizable=0;points=[];" vertex="1" connectable="0" parent="GV3HyDdgsDmQnaQocu7T-177">
          <mxGeometry x="-0.2785" y="1" relative="1" as="geometry">
            <mxPoint x="-1" as="offset" />
          </mxGeometry>
        </mxCell>
        <mxCell id="GV3HyDdgsDmQnaQocu7T-183" style="edgeStyle=orthogonalEdgeStyle;rounded=0;orthogonalLoop=1;jettySize=auto;html=1;entryX=0;entryY=0.5;entryDx=0;entryDy=0;" edge="1" parent="2" source="GV3HyDdgsDmQnaQocu7T-182" target="87">
          <mxGeometry relative="1" as="geometry">
            <Array as="points">
              <mxPoint x="240" y="397" />
            </Array>
          </mxGeometry>
        </mxCell>
        <mxCell id="GV3HyDdgsDmQnaQocu7T-184" value="Consome informações do banco" style="edgeLabel;html=1;align=center;verticalAlign=middle;resizable=0;points=[];" vertex="1" connectable="0" parent="GV3HyDdgsDmQnaQocu7T-183">
          <mxGeometry x="-0.1066" y="-3" relative="1" as="geometry">
            <mxPoint x="-1" as="offset" />
          </mxGeometry>
        </mxCell>
        <mxCell id="GV3HyDdgsDmQnaQocu7T-173" value="[Armazena informações]" style="text;html=1;align=center;verticalAlign=middle;resizable=0;points=[];autosize=1;strokeColor=none;fillColor=none;" vertex="1" parent="1">
          <mxGeometry x="585" y="368" width="150" height="30" as="geometry" />
        </mxCell>
      </root>
    </mxGraphModel>
  </diagram>
</mxfile>
